<?xml version="1.0" encoding="utf-8"?>
<!-- Generator: Adobe Illustrator 27.3.1, SVG Export Plug-In . SVG Version: 6.00 Build 0)  -->
<svg version="1.1" id="Layer_1" xmlns="http://www.w3.org/2000/svg" xmlns:xlink="http://www.w3.org/1999/xlink" x="0px" y="0px"
	 viewBox="0 0 640 480" style="enable-background:new 0 0 640 480;" xml:space="preserve">
<style type="text/css">
	.st0{fill:#425A8F;}
	.st1{fill:#39B54A;}
	.st2{fill:#FFFFFF;}
</style>
<g>
	<rect x="259.9" y="315.8" width="53.2" height="43.3"/>
	<path d="M459.7,222.4v12c0,24.3-5,45.9-15,64.8c-10,18.9-24.1,33.6-42.3,44c-18.2,10.4-38.7,15.7-61.6,15.8h-27.8V141.5h0.6v174.3
		h26c21.1,0,37.2-6.9,48.3-20.6c11.1-13.8,16.8-33.4,17.1-59.1v-13.8c0-26.6-5.5-46.7-16.5-60.4c-10-12.4-24.1-19.2-42.5-20.4h47
		v-32.8c3,1.3,5.9,2.9,8.8,4.5c18.1,10.3,32.3,25.1,42.5,44.2C454.6,176.5,459.7,198.2,459.7,222.4z"/>
	<path class="st0" d="M393.2,108.7v32.8h-47c-1.9-0.1-3.9-0.2-5.8-0.2h-26.6v0.2h-0.6v174.3h-53.9V141.5h-79V97.8h167.3
		c16.4,0.8,31.5,4.4,45.3,10.7C393,108.6,393.1,108.6,393.2,108.7z"/>
	<rect x="259.2" y="315.8" class="st1" width="53.9" height="43.5"/>
	<path class="st1" d="M346.2,141.5h-32.4v-0.2h26.6C342.3,141.3,344.2,141.3,346.2,141.5z"/>
	<path class="st1" d="M393.2,108.5v0.2c-0.1-0.1-0.2-0.1-0.4-0.2c-13.8-6.3-28.9-9.9-45.3-10.7h0.4
		C364.3,98.6,379.4,102.2,393.2,108.5z"/>
</g>
<rect x="313.1" y="141.5" class="st2" width="10" height="174.3"/>
<rect x="259.2" y="315.8" width="60.8" height="43.5"/>
</svg>
