<svg id="visual" viewBox="0 0 900 600" width="900" height="600" xmlns="http://www.w3.org/2000/svg" xmlns:xlink="http://www.w3.org/1999/xlink" version="1.1"><rect x="0" y="0" width="900" height="600" fill="#06031c"></rect><path d="M467 600L454.7 592.3C442.3 584.7 417.7 569.3 408.3 554C399 538.7 405 523.3 457.7 508C510.3 492.7 609.7 477.3 657.5 461.8C705.3 446.3 701.7 430.7 695 415.2C688.3 399.7 678.7 384.3 611.2 369C543.7 353.7 418.3 338.3 424.3 323C430.3 307.7 567.7 292.3 573.8 277C580 261.7 455 246.3 426.2 231C397.3 215.7 464.7 200.3 455.8 184.8C447 169.3 362 153.7 373.8 138.2C385.7 122.7 494.3 107.3 555.5 92C616.7 76.7 630.3 61.3 604.7 46C579 30.7 514 15.3 481.5 7.7L449 0L900 0L900 7.7C900 15.3 900 30.7 900 46C900 61.3 900 76.7 900 92C900 107.3 900 122.7 900 138.2C900 153.7 900 169.3 900 184.8C900 200.3 900 215.7 900 231C900 246.3 900 261.7 900 277C900 292.3 900 307.7 900 323C900 338.3 900 353.7 900 369C900 384.3 900 399.7 900 415.2C900 430.7 900 446.3 900 461.8C900 477.3 900 492.7 900 508C900 523.3 900 538.7 900 554C900 569.3 900 584.7 900 592.3L900 600Z" fill="#313706" stroke-linecap="round" stroke-linejoin="miter"></path></svg>